HIERARCHY
ROOT torus_large
{
	OFFSET 0.000000 0.000000 0.000000
	CHANNELS 6 Xposition Yposition Zposition Yrotation Xrotation Zrotation
	End Site
	{
		OFFSET 0.000000 0.000000 0.000000
	}
}
MOTION
Frames: 129
Frame Time: 0.008333334
-1.602479 2.370131 -0.278685 -35.137540 26.799080 -17.001310 
-1.606011 2.358599 -0.295810 -34.987670 25.973500 -15.743800 
-1.609028 2.346204 -0.313499 -34.637050 25.349480 -14.137080 
-1.611861 2.334288 -0.331219 -34.285800 24.556410 -12.635800 
-1.614202 2.321476 -0.348436 -33.979060 23.717620 -10.948240 
-1.615844 2.309140 -0.364983 -33.837250 22.924080 -9.563171 
-1.615392 2.296552 -0.380883 -33.722780 22.193380 -8.090881 
-1.613499 2.285927 -0.395572 -33.821040 21.218910 -6.858459 
-1.610061 2.277634 -0.410363 -33.782650 20.600380 -5.827759 
-1.606633 2.271489 -0.424867 -34.124050 19.994760 -5.074951 
-1.603034 2.267499 -0.437396 -34.380680 19.207150 -4.503723 
-1.600785 2.265617 -0.450560 -34.495910 19.056510 -4.203369 
-1.598595 2.265275 -0.462759 -34.841920 18.767550 -4.021484 
-1.596101 2.265385 -0.473815 -35.178830 18.804290 -3.855042 
-1.592949 2.267955 -0.483383 -35.315950 19.123480 -3.601685 
-1.589300 2.272570 -0.492994 -35.676090 19.688250 -3.689178 
-1.585385 2.280993 -0.501955 -36.143680 20.537650 -3.859711 
-1.581462 2.290671 -0.510319 -36.438020 21.531150 -4.107666 
-1.577897 2.301624 -0.517214 -36.654970 22.957940 -4.452789 
-1.576645 2.312686 -0.523150 -37.311800 24.213070 -5.069061 
-1.574692 2.324514 -0.527819 -37.661870 25.645900 -5.283936 
-1.573575 2.336234 -0.532697 -38.508970 27.030570 -6.238007 
-1.570027 2.347618 -0.537967 -39.049410 28.445150 -6.622803 
-1.566602 2.359532 -0.543522 -39.801120 29.445400 -7.531830 
-1.561570 2.370116 -0.550539 -40.265320 30.337940 -8.272888 
-1.556422 2.380899 -0.557155 -40.661740 30.810870 -9.007507 
-1.551337 2.390671 -0.565502 -40.724520 31.323210 -9.739075 
-1.546347 2.400842 -0.573035 -41.093260 31.328750 -10.625090 
-1.540768 2.409779 -0.580674 -41.219670 31.428240 -11.338750 
-1.536106 2.418252 -0.588372 -41.238160 31.797410 -12.074040 
-1.530836 2.426590 -0.594859 -41.386660 32.244190 -12.790370 
-1.525059 2.435453 -0.600720 -41.580540 32.623230 -13.429380 
-1.519331 2.445099 -0.605426 -41.798890 33.244280 -14.194060 
-1.514188 2.455253 -0.608765 -41.882230 33.660100 -14.926360 
-1.508313 2.465949 -0.611477 -42.064390 34.217490 -15.971560 
-1.503049 2.476062 -0.612416 -42.058320 34.415860 -16.818300 
-1.497386 2.485717 -0.613232 -41.777830 34.501380 -17.322050 
-1.493102 2.495730 -0.613317 -41.673580 34.649680 -18.158690 
-1.488568 2.504630 -0.613686 -41.512210 34.537720 -19.029210 
-1.485064 2.513443 -0.612811 -41.055790 34.556720 -19.423710 
-1.482797 2.521513 -0.612549 -40.794460 34.457800 -20.012940 
-1.480028 2.528579 -0.610778 -40.513060 34.523080 -20.363770 
-1.476925 2.535510 -0.608642 -40.056340 34.329720 -20.504210 
-1.474792 2.542213 -0.606778 -40.035680 34.419830 -21.017300 
-1.472325 2.547219 -0.604970 -39.717800 34.284830 -21.154660 
-1.469648 2.551323 -0.603482 -39.395810 34.092980 -21.097720 
-1.467194 2.553828 -0.603203 -38.965640 33.921030 -21.263370 
-1.465534 2.555106 -0.603540 -38.464290 33.434420 -20.923920 
-1.464321 2.554363 -0.605181 -37.861660 32.939750 -20.577210 
-1.462967 2.550994 -0.608155 -37.014800 32.235060 -19.866300 
-1.462882 2.546560 -0.613400 -36.312990 31.482910 -19.467710 
-1.461973 2.539531 -0.618800 -35.491790 30.366020 -18.621250 
-1.461553 2.531682 -0.624742 -34.658840 29.261640 -17.809540 
-1.459712 2.523301 -0.630847 -33.956450 28.215840 -17.047030 
-1.457221 2.515544 -0.635448 -33.342410 27.160430 -16.398800 
-1.454697 2.508149 -0.638614 -32.895810 26.159200 -15.733220 
-1.451297 2.501819 -0.641271 -32.254820 25.341290 -15.195860 
-1.448734 2.494979 -0.643215 -31.862430 24.722030 -14.863340 
-1.446598 2.488262 -0.643403 -31.471920 24.076180 -14.481660 
-1.443882 2.481668 -0.644490 -31.232820 23.383870 -14.208220 
-1.441280 2.475006 -0.644452 -30.905980 22.622780 -14.289180 
-1.439282 2.468260 -0.644474 -30.576260 22.030900 -14.426060 
-1.437842 2.462004 -0.643180 -30.367190 21.528070 -14.560910 
-1.437747 2.457279 -0.641039 -30.075290 21.243240 -14.970000 
-1.437925 2.453943 -0.637197 -29.670960 20.907180 -15.272340 
-1.439404 2.451857 -0.632010 -29.333100 20.661760 -15.627350 
-1.441813 2.451126 -0.625819 -28.902340 20.565960 -16.123780 
-1.443061 2.450698 -0.619448 -28.711490 20.510590 -16.844390 
-1.445249 2.450393 -0.612889 -28.290070 20.535480 -17.402530 
-1.447017 2.449923 -0.605948 -28.120000 20.767300 -18.131130 
-1.448062 2.449331 -0.599311 -28.213010 21.131000 -18.993500 
-1.449128 2.448769 -0.593197 -28.177890 21.522990 -19.832280 
-1.450321 2.447810 -0.587252 -28.344670 22.026340 -20.252140 
-1.452479 2.445653 -0.583049 -28.650270 22.510110 -20.522340 
-1.455339 2.442500 -0.581023 -28.752620 22.887110 -20.600340 
-1.458615 2.437963 -0.579809 -28.925960 22.984610 -20.798400 
-1.460938 2.433393 -0.579126 -28.860410 23.070920 -20.824370 
-1.463203 2.428901 -0.578939 -28.826570 23.150430 -20.882050 
-1.464880 2.424046 -0.578462 -28.583830 22.999850 -20.997680 
-1.465846 2.420499 -0.578250 -28.461580 22.703050 -21.250400 
-1.467010 2.416318 -0.577719 -28.288020 22.619280 -21.447630 
-1.467278 2.412799 -0.577626 -28.008150 22.545430 -21.522770 
-1.468051 2.409435 -0.577695 -27.801480 22.471440 -21.696780 
-1.467861 2.405946 -0.578648 -27.705570 22.359980 -21.830630 
-1.467052 2.403064 -0.579750 -27.710600 22.263710 -21.942290 
-1.464786 2.399951 -0.581124 -27.722500 21.983250 -21.900300 
-1.461532 2.398117 -0.582243 -27.819760 21.827680 -21.974180 
-1.458067 2.398587 -0.583123 -27.875580 21.680740 -22.288940 
-1.453767 2.400158 -0.582711 -28.092860 21.549140 -22.695400 
-1.447986 2.403476 -0.580378 -28.213930 21.485290 -22.949710 
-1.442085 2.408988 -0.577283 -28.436040 21.730470 -23.746580 
-1.435265 2.416084 -0.572078 -28.893710 21.793500 -24.299530 
-1.426819 2.423330 -0.566875 -29.247860 22.002860 -25.123540 
-1.418557 2.431334 -0.561287 -29.527340 22.495390 -25.961910 
-1.410828 2.439735 -0.556286 -29.783480 22.631890 -26.764740 
-1.401949 2.447995 -0.552973 -30.599240 22.885120 -27.785520 
-1.392318 2.454779 -0.550314 -30.832340 22.915180 -28.265170 
-1.383400 2.461914 -0.549050 -31.575230 22.856970 -29.062810 
-1.373651 2.469184 -0.548672 -32.243010 22.899450 -29.805270 
-1.364524 2.476375 -0.548314 -32.734130 22.773090 -30.304960 
-1.355121 2.484551 -0.549423 -33.442350 22.908280 -31.059910 
-1.345230 2.492570 -0.551220 -34.095920 22.975010 -31.495640 
-1.338098 2.499028 -0.553667 -35.021000 23.036790 -32.034120 
-1.331263 2.504824 -0.557966 -35.789340 23.099410 -32.123870 
-1.327557 2.508881 -0.563234 -36.420960 23.227870 -31.890780 
-1.325497 2.510851 -0.569965 -37.236820 23.400840 -31.503540 
-1.325498 2.510940 -0.578606 -37.998500 23.499790 -30.552920 
-1.327108 2.509328 -0.589330 -38.649600 24.110930 -29.597140 
-1.328857 2.505747 -0.600701 -39.467160 24.442300 -28.295780 
-1.331900 2.500807 -0.613469 -40.317630 24.673010 -26.905270 
-1.335613 2.495181 -0.625798 -41.131440 25.000560 -25.509430 
-1.339633 2.489474 -0.636623 -41.596920 24.954650 -24.060090 
-1.345044 2.486284 -0.643435 -42.153140 24.764790 -23.130710 
-1.351650 2.485669 -0.647447 -42.115600 24.549810 -22.602720 
-1.357675 2.486767 -0.649279 -42.153080 24.063060 -22.500520 
-1.364276 2.489328 -0.649329 -41.802340 23.764600 -22.563050 
-1.370115 2.492481 -0.646988 -41.498410 23.317430 -23.044950 
-1.374585 2.498135 -0.642732 -41.381960 22.842130 -23.958860 
-1.377307 2.506385 -0.635711 -41.115480 22.411310 -24.449160 
-1.378640 2.517705 -0.626191 -41.067630 22.434570 -25.274780 
-1.379089 2.533647 -0.613866 -41.028990 22.581780 -26.280090 
-1.379096 2.550630 -0.598839 -41.375520 22.827610 -27.495000 
-1.377689 2.568608 -0.583891 -41.421020 23.312320 -28.768040 
-1.376615 2.585676 -0.567668 -41.612300 23.577670 -29.862820 
-1.373940 2.599985 -0.553413 -41.930480 23.822510 -30.977110 
-1.372909 2.612218 -0.541692 -42.191220 23.956640 -31.742710 
-1.372718 2.621133 -0.533602 -42.553010 24.173600 -32.343540 
-1.372818 2.628256 -0.526568 -42.641880 24.386080 -32.211210 
-1.374209 2.633476 -0.521637 -42.817600 24.529930 -32.189540 
